<?xml version="1.0" encoding="UTF-8"?>
<svg version="1.1" xmlns="http://www.w3.org/2000/svg" width="191" height="385">
<path d="M0 0 C1.95789437 5.73383352 2.30461618 10.83991171 2.25 16.875 C2.26160156 18.14537109 2.26160156 18.14537109 2.2734375 19.44140625 C2.2556828 25.23831459 1.43000828 30.38211032 0 36 C0.45375 35.505 0.9075 35.01 1.375 34.5 C3 33 3 33 5 33 C5.226875 32.30648437 5.45375 31.61296875 5.6875 30.8984375 C7.29376627 27.35126616 9.49527229 24.56447165 12 21.625 C12.48621826 21.05354248 12.97243652 20.48208496 13.47338867 19.89331055 C19.18292712 13.38649004 25.50264928 8.22847188 34 6 C37.76171875 5.76953125 37.76171875 5.76953125 41.6875 5.8125 C42.99074219 5.81894531 44.29398438 5.82539063 45.63671875 5.83203125 C49 6 49 6 52 7 C50.92349451 15.52107163 43.36338005 22.26714685 36.9921875 27.53515625 C28.9902142 33.41896015 20.5858429 34.89466576 10.8125 35.1875 C5.3099052 35.56332155 2.79802283 37.10445078 -0.79296875 41.2109375 C-2.18102458 43.09567236 -2.18102458 43.09567236 -3 46 C-2.41992188 45.79503906 -1.83984375 45.59007812 -1.2421875 45.37890625 C11.07551412 41.13072203 20.50822062 41.44903733 33 45 C33 49 33 49 31.453125 50.78125 C19.83225796 59.84717464 7.36376621 61.46632713 -7 60 C-9.72159803 59.45545491 -12.32735558 58.76274099 -15 58 C-18.3 62.29 -21.6 66.58 -25 71 C-22.4321875 70.0409375 -22.4321875 70.0409375 -19.8125 69.0625 C-10.50872919 65.58759765 -0.05338021 63.79945468 9.3125 68 C10.55460545 68.64223765 11.7897869 69.2995149 13 70 C10.93245049 73.9667318 9.06064129 75.96832688 5.1875 78.1875 C4.35605469 78.67605469 3.52460937 79.16460937 2.66796875 79.66796875 C-3.86132548 82.927836 -9.32365872 83.28258402 -16.5 83.1875 C-17.42425781 83.18685547 -18.34851563 83.18621094 -19.30078125 83.18554688 C-24.08100871 83.15477288 -28.22200929 82.79633178 -33 82 C-36.3 87.61 -39.6 93.22 -43 99 C-42.01 98.34 -41.02 97.68 -40 97 C-37.40722683 95.58286614 -34.76386702 94.26644294 -32.125 92.9375 C-31.41730469 92.57333984 -30.70960937 92.20917969 -29.98046875 91.83398438 C-22.48456064 88.0581126 -14.02342111 86.21681853 -5.73046875 88.671875 C-3.8125 89.5 -3.8125 89.5 -1 91 C-5.65617034 100.947273 -13.85046989 107.23485173 -24 111 C-20.37 111.99 -16.74 112.98 -13 114 C-14.92900927 121.71603706 -21.36695389 128.66605752 -28 133 C-33.77456673 135.78895483 -39.63450646 138.14670828 -46.109375 138.09765625 C-46.86347656 138.09443359 -47.61757812 138.09121094 -48.39453125 138.08789062 C-49.17183594 138.07951172 -49.94914062 138.07113281 -50.75 138.0625 C-51.54277344 138.05798828 -52.33554687 138.05347656 -53.15234375 138.04882812 C-55.10159508 138.03708565 -57.05080738 138.01915146 -59 138 C-59.67301289 141.24871916 -60.3372951 144.49916379 -61 147.75 C-61.19078125 148.67039063 -61.3815625 149.59078125 -61.578125 150.5390625 C-61.75859375 151.42851562 -61.9390625 152.31796875 -62.125 153.234375 C-62.29257812 154.05131836 -62.46015625 154.86826172 -62.6328125 155.70996094 C-63.10554596 158.27171037 -63.10554596 158.27171037 -63 162 C-62.49210937 161.28714844 -61.98421875 160.57429687 -61.4609375 159.83984375 C-47.00220627 139.7221709 -47.00220627 139.7221709 -35.36328125 137.203125 C-30.2335935 136.76222622 -25.09953475 137.4247476 -20 138 C-24.66013369 150.59372713 -32.81535741 160.38106853 -45 166 C-51.70970089 168.98342057 -57.70548929 169.36813419 -65 169 C-64.85865273 171.89611544 -64.7120847 174.7918081 -64.5625 177.6875 C-64.52318359 178.50412109 -64.48386719 179.32074219 -64.44335938 180.16210938 C-64.23101997 184.19655811 -63.95552078 188.05747309 -63 192 C-62.59910156 191.24976563 -62.19820312 190.49953125 -61.78515625 189.7265625 C-56.34766025 179.93660372 -50.31859524 170.50204991 -39.7734375 165.76171875 C-34.56996824 164.33259691 -29.34073632 164.6233023 -24 165 C-25.57421787 175.06051879 -32.09122729 182.89834278 -39 190 C-38.46632813 189.7834375 -37.93265625 189.566875 -37.3828125 189.34375 C-31.43492861 187.12101138 -26.31874363 186.64382865 -20 187 C-22.76919737 195.97117858 -25.55244345 202.97643696 -32 210 C-31.01 209.67 -30.02 209.34 -29 209 C-27.69135103 208.6318585 -26.37848383 208.27849389 -25.0625 207.9375 C-24.05896484 207.67259766 -24.05896484 207.67259766 -23.03515625 207.40234375 C-21 207 -21 207 -17 207 C-20.38534274 220.4900779 -24.25662135 232.61187239 -36 241 C-38.30426948 242.15446228 -40.58499273 243.08229724 -43 244 C-38.35857583 253.26751651 -38.35857583 253.26751651 -31 260 C-31.04640625 259.03320312 -31.0928125 258.06640625 -31.140625 257.0703125 C-31.43725697 246.37037364 -30.30813665 237.62795975 -22.7890625 229.47265625 C-19.80394959 227.01547815 -15.01336122 224 -11 224 C-10.35471566 234.95190918 -11.06809517 245.81365608 -18.375 254.5625 C-21.31402194 257.56499974 -24.37991423 259.8809254 -28 262 C-26.52778565 267.02230086 -23.5510349 269.80278222 -19.875 273.3125 C-19.31167969 273.86228516 -18.74835938 274.41207031 -18.16796875 274.97851562 C-16.78537942 276.32595438 -15.39359084 277.66394273 -14 279 C-14.15984375 278.00871094 -14.3196875 277.01742188 -14.484375 275.99609375 C-15.77345819 266.90622878 -16.62776793 256.17572335 -12 248 C-8.90558628 244.47877059 -5.75338641 242.41941645 -1 242 C3.8697405 252.79812025 4.16624883 263.89528354 0 275 C-1.91629167 278.77851868 -4.00311048 282.00311048 -7 285 C-2.26638344 289.37705843 2.2733575 293.0173737 8 296 C7.67773438 294.8553125 7.35546875 293.710625 7.0234375 292.53125 C5.93408623 288.15070824 5.61531563 284.00272287 5.625 279.5 C5.62632935 278.38407471 5.62632935 278.38407471 5.62768555 277.24560547 C5.7688418 270.72375671 7.13236656 266.535902 11.32421875 261.3671875 C13.46476906 259.62081779 15.29700361 259.36526978 18 259 C23.02703068 269.5684552 24.69502633 280.68500827 21 292 C19.22741959 295.50284458 17.22806852 298.7700013 15 302 C15.84046875 302.25394531 16.6809375 302.50789063 17.546875 302.76953125 C21.29946144 304.10670855 24.733472 305.84096973 28.25 307.6875 C36.91211854 312.14206856 45.87485554 315.62031687 55 319 C54.67 320.98 54.34 322.96 54 325 C50.2734777 326.38593749 48.17657078 325.58946325 44.5625 324.12109375 C43.50160156 323.69376953 42.44070312 323.26644531 41.34765625 322.82617188 C40.24292969 322.36791016 39.13820312 321.90964844 38 321.4375 C36.92621094 321.00630859 35.85242188 320.57511719 34.74609375 320.13085938 C27.31026211 317.1019436 20.13031425 313.68801051 13 310 C12.42330566 310.57331055 11.84661133 311.14662109 11.25244141 311.73730469 C1.31835013 321.42004866 -7.75345808 322.35356937 -21.11987305 322.38085938 C-26.44316937 322.2945534 -30.96338456 321.73916279 -36 320 C-35.54464562 315.10494044 -34.53993401 312.44916647 -31 309 C-25.38960505 305.56694518 -20.39014783 303.86401077 -13.796875 303.90234375 C-12.8171875 303.90556641 -11.8375 303.90878906 -10.828125 303.91210938 C-9.30445312 303.92467773 -9.30445312 303.92467773 -7.75 303.9375 C-6.203125 303.94426758 -6.203125 303.94426758 -4.625 303.95117188 C-2.08327427 303.96293912 0.45833319 303.97937989 3 304 C2.01257813 303.30132812 1.02515625 302.60265625 0.0078125 301.8828125 C-1.2865296 300.96364202 -2.58079653 300.04436567 -3.875 299.125 C-4.52597656 298.66480469 -5.17695312 298.20460938 -5.84765625 297.73046875 C-6.47285156 297.28574219 -7.09804687 296.84101563 -7.7421875 296.3828125 C-8.3182373 295.97434082 -8.89428711 295.56586914 -9.48779297 295.14501953 C-11 294 -11 294 -13 292 C-13.60134766 292.59748047 -13.60134766 292.59748047 -14.21484375 293.20703125 C-22.72053695 301.13410587 -31.40354779 301.60442335 -42.59375 301.29296875 C-49.84732679 300.92501119 -56.29279879 299.65175989 -62 295 C-58.93667216 289.19579988 -55.15285763 286.14363407 -49 284 C-41.36051905 282.60691818 -34.31263973 283.13671685 -26.71484375 284.52734375 C-23.96668999 285.08576032 -23.96668999 285.08576032 -21 285 C-26.445 279.555 -26.445 279.555 -32 274 C-35.53979922 275.41433548 -35.53979922 275.41433548 -39.0703125 276.8515625 C-49.87581098 280.91903151 -59.44062716 279.12203654 -70 275 C-75.66210979 272.39322898 -80.3712847 269.15397527 -85 265 C-83.15580481 260.85056083 -80.78175578 258.60253707 -76.625 256.73046875 C-64.87847761 253.46171922 -53.54027918 256.72986041 -43 262 C-46.96 256.39 -50.92 250.78 -55 245 C-56.876875 245.680625 -58.75375 246.36125 -60.6875 247.0625 C-72.95476477 250.80122169 -84.48763828 248.22051454 -95.796875 242.61328125 C-100.94096899 239.71402118 -104.56728765 236.80579729 -108 232 C-106.73299277 231.0158875 -105.4612381 230.03788503 -104.1875 229.0625 C-103.47980469 228.51722656 -102.77210937 227.97195312 -102.04296875 227.41015625 C-96.43876858 223.54186512 -88.54766966 224.24554257 -82 225 C-74.27888926 227.02039923 -67.55068185 230.50443402 -61 235 C-61.80925342 232.85294019 -62.62249113 230.7073817 -63.4375 228.5625 C-63.88996094 227.36753906 -64.34242187 226.17257813 -64.80859375 224.94140625 C-65.7144826 222.15554277 -65.7144826 222.15554277 -67 221 C-69.27145346 221.03300659 -71.54240126 221.10240005 -73.8125 221.1875 C-87.64114518 221.38681698 -98.06715095 215.853013 -107.9375 206.375 C-110.39585604 203.78297448 -112.53497502 201.29630621 -114 198 C-113.67 197.01 -113.34 196.02 -113 195 C-106.37979406 191.77638428 -98.78902059 193.04162868 -92 195 C-82.79015008 198.73678337 -75.94273069 205.05726931 -69 212 C-69.33 207.71 -69.66 203.42 -70 199 C-71.258125 198.79375 -72.51625 198.5875 -73.8125 198.375 C-84.65001965 195.92507405 -94.59023612 189.21141839 -101.0078125 180.171875 C-105.6463863 172.60265416 -109.27015515 165.01046875 -109 156 C-99.94428749 155.41576048 -92.89313506 157.36967404 -85.75 163.125 C-78.48272298 170.01133105 -75.10909332 178.67272004 -72 188 C-71.67 181.07 -71.34 174.14 -71 167 C-72.32 166.67 -73.64 166.34 -75 166 C-86.23675355 159.60260459 -92.34348419 149.05060429 -96 137 C-97.42339995 130.75893866 -97.09420296 124.37440021 -97 118 C-96.01 117.505 -96.01 117.505 -95 117 C-85.60796039 120.32333709 -78.07669718 125.61631393 -73.6953125 134.70703125 C-71.53850829 140.33518823 -70.16167961 146.09479534 -69 152 C-68.49411853 150.08487728 -67.99551609 148.16783078 -67.5 146.25 C-67.2215625 145.18265625 -66.943125 144.1153125 -66.65625 143.015625 C-65.85824011 139.86294698 -65.85824011 139.86294698 -66 136 C-67.14643883 134.81984238 -68.30198902 133.64704284 -69.50390625 132.5234375 C-79.17974382 122.67075694 -81.39976686 110.85592031 -81.29248047 97.58642578 C-81.20142156 93.61510876 -80.96279734 89.87467223 -80 86 C-74.5990168 86.13502458 -71.67064539 88.29382866 -67.89453125 91.875 C-60.61795087 100.03677264 -59.86803718 109.55764226 -59 120 C-57.82866942 117.54379149 -56.66278278 115.08525083 -55.5 112.625 C-55.16613281 111.92632812 -54.83226562 111.22765625 -54.48828125 110.5078125 C-52.64790602 106.91172001 -52.64790602 106.91172001 -52 103 C-53.02732253 102.12366724 -54.09867302 101.29862789 -55.1875 100.5 C-61.77103034 94.9959554 -64.56515693 87.25418828 -65.77734375 78.921875 C-66.48768012 69.60026794 -65.71553799 60.7308433 -60 53 C-59.01 52.67 -58.02 52.34 -57 52 C-50.23730678 56.05761593 -46.64644399 63.48052618 -44.43115234 70.90698242 C-43.97744846 73.10947586 -43.88629433 75.08120679 -43.90234375 77.328125 C-43.90717773 78.52695313 -43.90717773 78.52695313 -43.91210938 79.75 C-43.92467773 80.9875 -43.92467773 80.9875 -43.9375 82.25 C-43.94201172 83.09046875 -43.94652344 83.9309375 -43.95117188 84.796875 C-43.96292039 86.86461401 -43.98085478 88.93231624 -44 91 C-37.04132694 83.48761232 -37.04132694 83.48761232 -33.93359375 74.23046875 C-34.78403222 71.711706 -35.85989646 69.40001457 -37 67 C-39.86204312 55.66630924 -40.8278032 43.18584215 -34.75 32.75 C-32.30270926 29.09732725 -29.51503341 26.61583881 -26 24 C-20.94680729 29.05319271 -20.76432994 37.66606482 -20.625 44.4375 C-20.75128774 51.28510187 -21.95996686 57.47917979 -24 64 C-22.72839334 62.41728767 -21.45774715 60.83380365 -20.1875 59.25 C-19.47980469 58.36828125 -18.77210937 57.4865625 -18.04296875 56.578125 C-17.36878906 55.72734375 -16.69460937 54.8765625 -16 54 C-15.401875 53.3296875 -14.80375 52.659375 -14.1875 51.96875 C-12.78252284 50.06284828 -12.78252284 50.06284828 -13.14453125 47.765625 C-13.36496094 46.93546875 -13.58539063 46.1053125 -13.8125 45.25 C-16.58163729 32.30428319 -16.33895243 18.37355066 -9 7 C-4.05882353 0 -4.05882353 0 0 0 Z M-49 111 C-49.804375 112.711875 -50.60875 114.42375 -51.4375 116.1875 C-51.88996094 117.15042969 -52.34242187 118.11335938 -52.80859375 119.10546875 C-53.90381422 121.76631586 -54.54954796 124.16784755 -55 127 C-54.34257813 126.45472656 -54.34257813 126.45472656 -53.671875 125.8984375 C-46.08129316 119.88151287 -37.49059803 115.1569541 -28 113 C-28 112.67 -28 112.34 -28 112 C-34.93 111.67 -41.86 111.34 -49 111 Z M-42 191 C-43.299375 191.928125 -43.299375 191.928125 -44.625 192.875 C-50.55243149 196.60708649 -56.15687912 197.42213646 -63 198 C-61.90109517 204.91663627 -60.43430815 211.42736799 -58 218 C-55.74326126 215.18604182 -53.97259287 212.23790006 -52.24609375 209.07470703 C-48.78085989 202.72687422 -45.13406517 197.16615308 -40 192 C-40.66 191.67 -41.32 191.34 -42 191 Z M-38.13671875 214.859375 C-41.51359746 217.38397191 -44.78237834 218.30899552 -48.8125 219.25 C-49.50537109 219.42273438 -50.19824219 219.59546875 -50.91210938 219.7734375 C-52.60525594 220.19380492 -54.30227443 220.59852527 -56 221 C-55.40440894 225.86872054 -53.27522585 229.59328841 -50.9375 233.8125 C-50.56044922 234.50537109 -50.18339844 235.19824219 -49.79492188 235.91210938 C-48.86916148 237.61128985 -47.93537688 239.30609425 -47 241 C-44.8612574 240.20648492 -44.8612574 240.20648492 -44.30151367 238.26928711 C-44.09244385 237.5294458 -43.88337402 236.78960449 -43.66796875 236.02734375 C-43.42626953 235.20943359 -43.18457031 234.39152344 -42.93554688 233.54882812 C-42.44497552 231.83631141 -41.9578731 230.12279635 -41.47460938 228.40820312 C-39.76067633 222.63661231 -37.45645775 217.93153398 -34 213 C-36.22062106 212.78118273 -36.22062106 212.78118273 -38.13671875 214.859375 Z " fill="#000000" transform="translate(114,21)"/>
</svg>
