<?xml version="1.0" encoding="UTF-8"?>
<svg version="1.1" xmlns="http://www.w3.org/2000/svg" width="191" height="385" viewBox="0 0 191 385">
<path d="M0 0 C4.26619925 0.74474599 5.88006786 2.56239345 8.54296875 5.83203125 C13.62730211 13.39719215 15.18643583 21.66578852 15.1875 30.625 C15.19825562 31.68787231 15.19825562 31.68787231 15.20922852 32.7722168 C15.19704294 37.07177544 14.65956322 40.66107935 13.4375 44.8125 C12.58761336 48.57709853 12.7944891 49.65228091 14.80078125 53.046875 C17.08132511 55.85481736 19.43205695 58.45450401 22 61 C22.66 61.66 23.32 62.32 24 63 C23.7834375 62.46375 23.566875 61.9275 23.34375 61.375 C18.81801948 48.63590669 20.2511945 36.38081433 25 24 C31.89364608 27.91946433 35.38537966 32.54833204 38 40 C40.03620261 51.19237195 39.01222667 62.08777829 34.64453125 72.546875 C33.78321408 74.92627916 33.78321408 74.92627916 34.62890625 76.9375 C35.08136719 77.618125 35.53382812 78.29875 36 79 C36.64195313 79.99515625 37.28390625 80.9903125 37.9453125 82.015625 C38.66460937 83.08296875 39.38390625 84.1503125 40.125 85.25 C40.84945312 86.32765625 41.57390625 87.4053125 42.3203125 88.515625 C42.87460938 89.33546875 43.42890625 90.1553125 44 91 C43.95359375 89.82824219 43.9071875 88.65648438 43.859375 87.44921875 C43.48912351 74.18517106 44.96389503 64.30115966 54 54 C54.99 53.01 54.99 53.01 56 52 C57.95703125 52.109375 57.95703125 52.109375 60 53 C65.90142767 60.44438854 66.47262204 69.79787213 65.77734375 78.921875 C64.55830988 87.30125344 61.7019936 94.99405108 55.1875 100.625 C54.135625 101.40875 53.08375 102.1925 52 103 C53.75990784 108.91969002 56.39694605 114.41634992 59 120 C59.12955078 118.44152344 59.12955078 118.44152344 59.26171875 116.8515625 C60.27476354 106.22479918 61.86639327 97.59193391 69.9375 89.9375 C73.18291073 87.31407501 75.72719044 86.10682024 80 86 C83.2484978 99.07322287 81.75684641 113.3361382 75.31640625 125.06640625 C72.62890532 129.49933789 70.35733841 133.08555216 66 136 C66.12375 137.155 66.2475 138.31 66.375 139.5 C66.47941406 140.47453125 66.47941406 140.47453125 66.5859375 141.46875 C67.1703676 145.04149249 68.09429426 148.49499242 69 152 C69.21914062 150.94941406 69.43828125 149.89882812 69.6640625 148.81640625 C72.33156754 136.72765367 76.25592968 127.14335486 87 120 C89.94515526 118.71292593 92.87896366 117.75858522 96 117 C97.73108461 118.73108461 97.17235649 121.01866907 97.1875 123.375 C96.99223726 138.39248002 92.6614739 149.95381016 82.1796875 160.9296875 C75.78867925 167 75.78867925 167 71 167 C71.495 177.395 71.495 177.395 72 188 C73.80252298 183.33683832 73.80252298 183.33683832 75.58886719 178.66748047 C79.30450155 169.21951917 85.22766984 162.14426006 94.375 157.5625 C99.22465257 155.57354999 103.83404398 155.61174443 109 156 C108.42891547 167.42169064 104.10665877 177.83250327 96 186 C88.20959057 192.53276486 80.29340109 198.14221658 70 199 C69.505 205.435 69.505 205.435 69 212 C70.258125 210.659375 71.51625 209.31875 72.8125 207.9375 C81.46295416 199.28704584 91.50536474 193.10208035 104 193 C107.06665285 193.45999793 110.0200165 194.14756973 113 195 C113.8046875 196.6328125 113.8046875 196.6328125 114 199 C112.44564402 201.1882894 110.97366791 202.9641518 109.125 204.875 C108.61904297 205.40802734 108.11308594 205.94105469 107.59179688 206.49023438 C99.7558613 214.54301345 90.2854996 220.82828388 78.7421875 221.2421875 C74.82134164 221.28792423 70.9166632 221.17691327 67 221 C66.37379084 222.39529129 65.74909369 223.79126121 65.125 225.1875 C64.77695313 225.96480469 64.42890625 226.74210938 64.0703125 227.54296875 C62.99560671 230.01008533 61.98709147 232.49670045 61 235 C61.92941406 234.44570313 62.85882813 233.89140625 63.81640625 233.3203125 C65.06486499 232.58813369 66.31357652 231.85638579 67.5625 231.125 C68.47612305 230.57779297 68.47612305 230.57779297 69.40820312 230.01953125 C78.25197256 224.87236386 86.88072817 224.10294023 97 225 C101.97143307 226.42460564 105.05065282 228.7714179 108 233 C97.79129829 243.15828837 85.34800903 248.70097438 70.8125 249.375 C65.33021288 248.83575864 59.94825514 247.47412757 55 245 C53.34949862 247.26756723 51.70449972 249.53878961 50.0625 251.8125 C49.59392578 252.45509766 49.12535156 253.09769531 48.64257812 253.75976562 C47.9706543 254.69272461 47.9706543 254.69272461 47.28515625 255.64453125 C46.87144775 256.21534424 46.45773926 256.78615723 46.03149414 257.37426758 C44.81911383 259.14060289 44.81911383 259.14060289 44 262 C44.50789063 261.73445313 45.01578125 261.46890625 45.5390625 261.1953125 C46.22742188 260.84210938 46.91578125 260.48890625 47.625 260.125 C48.29789062 259.77695312 48.97078125 259.42890625 49.6640625 259.0703125 C55.08098258 256.58831233 59.93048751 255.61163522 65.875 255.625 C66.93400513 255.62632935 66.93400513 255.62632935 68.0144043 255.62768555 C74.49697767 255.77513584 78.95181816 257.06393519 83.69921875 261.63671875 C84.12847656 262.08660156 84.55773437 262.53648437 85 263 C82.26360802 269.61656685 75.74324982 272.78885218 69.4609375 275.5625 C59.49290699 279.36344751 49.58488984 281.13906691 39.4375 277 C38.67308594 276.62875 37.90867187 276.2575 37.12109375 275.875 C34.76612685 274.74576726 34.76612685 274.74576726 31 275 C28.92714539 276.78334978 27.10700368 278.51627166 25.25 280.5 C24.49009766 281.28697266 24.49009766 281.28697266 23.71484375 282.08984375 C22.46734913 283.38441363 21.23242693 284.6910776 20 286 C21.00417969 285.77183594 22.00835937 285.54367187 23.04296875 285.30859375 C33.90386677 282.97115122 45.30748196 280.95043429 55.40625 286.8984375 C57.65525918 288.45289973 59.4249836 289.74019386 61 292 C61.25 294.5625 61.25 294.5625 60 297 C50.26109532 302.47813388 36.18083041 302.55369985 25.515625 300.24609375 C20.62311883 298.56016257 17.53360902 296.84017784 14 293 C10.11390189 294.75066796 6.72187742 297.18324006 3.25 299.625 C2.34701172 300.25535156 2.34701172 300.25535156 1.42578125 300.8984375 C-0.05113043 301.92993137 -1.52579194 302.96464579 -3 304 C-2.38592285 303.97905273 -1.7718457 303.95810547 -1.13916016 303.93652344 C1.69872017 303.85231966 4.53633652 303.80101577 7.375 303.75 C8.34050781 303.71648437 9.30601563 303.68296875 10.30078125 303.6484375 C18.58574088 303.53722999 25.09008835 305.39339223 32 310 C35.3914382 313.3914382 36 315.15809972 36 320 C24.82985366 323.85709473 9.06093483 324.19433914 -1.8046875 319.35546875 C-5.00052341 317.3822391 -7.7029057 315.05384934 -10.34375 312.390625 C-12.02248397 310.67848869 -12.02248397 310.67848869 -15 311 C-16.89258945 311.72616681 -16.89258945 311.72616681 -18.88671875 312.7578125 C-20.03611938 313.32157593 -20.03611938 313.32157593 -21.20874023 313.89672852 C-22.43572632 314.5047229 -22.43572632 314.5047229 -23.6875 315.125 C-30.01648387 318.19152099 -36.35419556 321.08304356 -42.9375 323.5625 C-43.59258545 323.81338379 -44.2476709 324.06426758 -44.92260742 324.32275391 C-48.20400822 325.52784911 -50.44173967 326 -54 326 C-54.33 323.69 -54.66 321.38 -55 319 C-54.41734375 318.76925781 -53.8346875 318.53851563 -53.234375 318.30078125 C-42.53634189 314.04511714 -31.95427329 309.73993629 -21.75 304.38867188 C-17.17781825 302 -17.17781825 302 -15 302 C-15.40992188 301.39414062 -15.81984375 300.78828125 -16.2421875 300.1640625 C-22.78214112 289.99427815 -24.07913689 280.93686282 -22 269 C-20.90461748 265.53646256 -19.5853842 262.26662885 -18 259 C-12.37471909 260.94721262 -9.89626253 262.54165909 -7 268 C-5.6798359 271.82060736 -5.80880636 275.75347854 -5.8125 279.75 C-5.81185547 280.46285156 -5.81121094 281.17570312 -5.81054688 281.91015625 C-5.86117567 286.94542014 -6.41350127 291.2405038 -8 296 C-2.73369981 292.59445921 2.2703193 289.12331138 7 285 C6.60167969 284.5153125 6.20335937 284.030625 5.79296875 283.53125 C-0.99533851 274.9426374 -3.25345272 267.03786616 -3 256 C-2.1907891 251.19394337 -1.19102552 246.38205104 1 242 C5.42350331 242.50554324 7.78071602 243.95015202 11 247 C14.86672756 252.52389651 15.16165399 257.19645398 15.125 263.8125 C15.12886719 264.49892578 15.13273437 265.18535156 15.13671875 265.89257812 C15.12826847 270.35855357 14.72583566 274.59314064 14 279 C15.96791947 277.11332491 17.9240423 275.21658114 19.875 273.3125 C20.70837891 272.51682617 20.70837891 272.51682617 21.55859375 271.70507812 C24.64442599 268.67501394 26.75143986 266.25932857 28 262 C27.40832031 261.57589844 26.81664063 261.15179688 26.20703125 260.71484375 C17.80650707 254.4795444 12.78226183 248.53797671 11 238 C10.77599501 233.32024358 10.81790746 228.68045262 11 224 C19.342189 226.65433286 24.17914356 229.56985136 28.25 237.40625 C31.41910356 244.88885562 31.42177979 251.97446793 31 260 C31.66 260 32.32 260 33 260 C33.24492188 259.45859375 33.48984375 258.9171875 33.7421875 258.359375 C35.29353788 255.44938857 37.16714304 252.9025804 39.125 250.25 C39.84945312 249.26515625 40.57390625 248.2803125 41.3203125 247.265625 C41.87460938 246.51796875 42.42890625 245.7703125 43 245 C41.31897135 243.87931424 39.62983398 242.76985933 37.9140625 241.703125 C25.68820269 233.94199898 20.84832478 222.58738136 17 209 C17 208.34 17 207.68 17 207 C23.41923331 207.29112169 27.62100206 208.45215029 33 212 C32.39671875 211.20078125 31.7934375 210.4015625 31.171875 209.578125 C25.8810425 202.37539559 22.25941076 195.76904175 20 187 C28.42516862 186.59880149 35.23729739 187.53363236 42.0625 192.8125 C47.46756289 197.86082874 50.56354315 204.55378605 54 211 C54.98849133 212.67351805 55.9839554 214.34306574 57 216 C59.72399099 210.16287645 61.41039668 204.23440168 63 198 C61.72125 198.0825 60.4425 198.165 59.125 198.25 C49.34155927 198.15828024 42.55244891 193.61849874 35.625 186.99609375 C30.23476559 180.84384703 25.14137067 173.22095362 24 165 C32.8258082 164.37749002 39.72336478 164.61844841 47 170 C53.9656974 176.27716059 58.61149289 183.78742399 63 192 C63.94288183 187.0399662 64.30248211 182.15485426 64.5625 177.125 C64.62727539 175.949375 64.62727539 175.949375 64.69335938 174.75 C64.79853351 172.83349351 64.89967925 170.91676667 65 169 C64.42894531 169.04640625 63.85789062 169.0928125 63.26953125 169.140625 C52.72081743 169.61020209 43.04572812 166.8481041 34.98828125 159.91015625 C28.83654511 154.00013862 23.87733063 147.64103984 20 140 C20 139.34 20 138.68 20 138 C29.44249091 136.77158817 37.55618519 136.05219537 45.55859375 141.85546875 C52.36444704 147.7082954 58.02921129 154.54381693 63 162 C62.47019343 155.64232115 61.28433714 149.76113373 59.62109375 143.6015625 C59 141 59 141 59 138 C57.88882813 138.03480469 56.77765625 138.06960937 55.6328125 138.10546875 C43.02450877 138.3863468 33.04690867 137.38745518 23 129 C13 118.93115318 13 118.93115318 13 114 C22.78672015 110.80433628 30.47572405 112.23405292 40 116 C43.19894088 117.77307432 46.10520469 119.77094817 49 122 C49.74121094 122.55558594 50.48242188 123.11117187 51.24609375 123.68359375 C51.82488281 124.11800781 52.40367187 124.55242187 53 125 C52.79503906 124.32453125 52.59007812 123.6490625 52.37890625 122.953125 C52.10949219 122.06109375 51.84007812 121.1690625 51.5625 120.25 C51.29566406 119.36828125 51.02882813 118.4865625 50.75390625 117.578125 C50.11531506 115.39434165 49.53224167 113.21164502 49 111 C48.49726562 111.15984375 47.99453125 111.3196875 47.4765625 111.484375 C36.2007669 113.83201699 24.19370605 112.37624648 14.375 106.375 C8.9455747 102.52030125 3.14289029 97.42867086 1 91 C7.93885679 87.29927638 14.36055627 86.93904194 22.0234375 88.69140625 C28.99924517 90.83436002 34.89960196 94.05053911 41 98 C41.66 98.33 42.32 98.66 43 99 C42.36191406 97.95199219 41.72382812 96.90398437 41.06640625 95.82421875 C40.23161527 94.44540668 39.39698839 93.06649523 38.5625 91.6875 C38.14162109 90.99720703 37.72074219 90.30691406 37.28710938 89.59570312 C36.88427734 88.92861328 36.48144531 88.26152344 36.06640625 87.57421875 C35.5086853 86.65515747 35.5086853 86.65515747 34.93969727 85.7175293 C34 84 34 84 33 81 C32.21882813 81.32097656 31.43765625 81.64195313 30.6328125 81.97265625 C19.85858598 85.01956117 6.32743975 84.47610533 -3.671875 79.43359375 C-11.45249824 74.64250528 -11.45249824 74.64250528 -13 70 C-4.70998362 65.20164427 3.34042457 64.63705689 12.6171875 66.87109375 C15.78125473 67.83299838 18.89189627 68.8718399 22 70 C23.485 70.495 23.485 70.495 25 71 C21.37 66.71 17.74 62.42 14 58 C11.69 58.66 9.38 59.32 7 60 C-6.96771984 61.7163968 -18.50285237 59.36157383 -30.22265625 51.5625 C-32.16041665 49.85897438 -33.01634662 48.36484543 -34 46 C-22.08447614 40.51885902 -10.68654859 41.34986653 1.6875 45.125 C2.450625 45.41375 3.21375 45.7025 4 46 C2.7121669 44.51749445 1.41960936 43.03909182 0.125 41.5625 C-0.59429687 40.73878906 -1.31359375 39.91507813 -2.0546875 39.06640625 C-5.17926321 35.74732884 -7.66344947 35.79239461 -12.11938477 35.40551758 C-28.14261436 33.97564409 -37.77895004 28.2554355 -48.37109375 16.015625 C-51.08635359 12.65573512 -52 11.46500483 -52 7 C-45.27188626 4.75729542 -35.8093461 4.80133023 -29.1875 7.5 C-19.86053547 12.51412003 -9.9249402 20.67712813 -5.9140625 30.71875 C-5.19365239 33.17117253 -5.19365239 33.17117253 -2.875 34.3125 C-1.946875 34.6528125 -1.946875 34.6528125 -1 35 C-0.83781477 31.31128598 -0.83781477 31.31128598 -1.48950195 29.04833984 C-2.49756035 25.00357183 -2.18465979 20.7717103 -2.1875 16.625 C-2.19974609 15.69171875 -2.21199219 14.7584375 -2.22460938 13.796875 C-2.23524593 8.79060233 -1.98441701 4.69044021 0 0 Z M33 212 C33.53109375 212.84820312 34.0621875 213.69640625 34.609375 214.5703125 C39.64546356 222.85034657 42.80395701 230.49344549 45 240 C47.99803185 239.33369833 47.99803185 239.33369833 49.07495117 237.44946289 C49.55411987 236.4709436 49.55411987 236.4709436 50.04296875 235.47265625 C50.56987305 234.40821289 50.56987305 234.40821289 51.10742188 233.32226562 C51.64206055 232.20368164 51.64206055 232.20368164 52.1875 231.0625 C52.73954102 229.9497168 52.73954102 229.9497168 53.30273438 228.81445312 C55.2993237 225.07365987 55.2993237 225.07365987 56 221 C55.2265625 220.84144531 54.453125 220.68289062 53.65625 220.51953125 C47.61219141 219.16560228 42.69433616 217.68630308 37.62109375 214.0859375 C35.87063415 212.80951167 35.87063415 212.80951167 33 212 Z " transform="translate(77,23)"/>
</svg>
